<svg width="71" height="71" viewBox="0 0 71 71" fill="none" xmlns="http://www.w3.org/2000/svg">
<g filter="url(#filter0_d_1481_4803)">
<path d="M33.8393 0C36.1523 0 38.4338 0.239217 40.6563 0.689014L40.6596 0.689791L40.6627 0.690373C42.7306 1.11392 44.7324 1.72526 46.6655 2.5247L47.0511 2.68716L47.0552 2.6889L47.0595 2.69065C49.0134 3.53559 50.9706 4.5927 52.7797 5.81645C54.5456 6.99535 56.241 8.40207 57.771 9.93209L57.7796 9.94063L57.7881 9.94937C59.2802 11.4677 60.6589 13.1087 61.8867 14.9237C63.0982 16.7146 64.1633 18.6279 65.021 20.664C65.8408 22.6018 66.4759 24.5897 66.9242 26.626L67.0114 27.034L67.0141 27.0468C67.4639 29.2694 67.7031 31.5508 67.7031 33.8638C67.7031 36.1768 67.4639 38.4582 67.0141 40.6808L67.0114 40.6936C66.5599 42.8715 65.8952 45 65.0162 47.0511L65.016 47.0509C64.1632 49.0732 63.1021 51.0071 61.8867 52.8039L61.884 52.8082L61.8811 52.8125C60.6954 54.5514 59.3186 56.248 57.771 57.7955C56.2552 59.3113 54.5825 60.6916 52.7797 61.9111C50.9874 63.1236 49.0726 64.1894 47.0348 65.0474L47.0346 65.0472C44.9691 65.9208 42.8467 66.5844 40.6693 67.0359L40.6598 67.0378L40.6501 67.0397C38.4105 67.4876 36.1554 67.7276 33.8393 67.7276C31.5264 67.7276 29.2451 67.4884 27.0226 67.0386L27.016 67.0372L27.0096 67.0359C24.8316 66.5843 22.7033 65.9195 20.6522 65.0404L20.6479 65.0387L20.6438 65.0369C18.6899 64.192 16.7327 63.1349 14.9237 61.9111L14.9151 61.9053C13.1762 60.7197 11.4796 59.343 9.93209 57.7955L9.92355 57.787L9.91521 57.7782C8.42309 56.2599 7.04425 54.6189 5.81644 52.8039L5.80596 52.7884C4.60217 50.9827 3.53832 49.0729 2.68017 47.0348C1.80461 44.9888 1.14205 42.8657 0.691732 40.6936L0.689014 40.6808C0.239208 38.4582 0 36.1768 0 33.8638C0 31.5508 0.239208 29.2694 0.689014 27.0468L0.689791 27.0437L0.690373 27.0404C1.14095 24.8406 1.80416 22.7156 2.68017 20.6685L2.8434 20.2877C3.67189 18.3917 4.67983 16.6039 5.81644 14.9237L5.82227 14.9151C7.00884 13.1748 8.41002 11.4542 9.93209 9.93209C11.4479 8.41625 13.1208 7.036 14.9237 5.81645C16.6039 4.67983 18.3917 3.67189 20.2877 2.8434L20.6685 2.68017C22.7146 1.80459 24.8374 1.14206 27.0096 0.691732L27.016 0.690373L27.0226 0.689014C29.2451 0.239227 31.5264 5.22901e-06 33.8393 0Z" fill="white"/>
<path d="M33.8389 0.53418C36.1121 0.53418 38.3557 0.769029 40.542 1.21094L40.5488 1.21289L40.5547 1.21387H40.5557C42.5894 1.63044 44.5578 2.23098 46.458 3.0166V3.01758L46.8408 3.17773V3.17871H46.8418L46.8438 3.17969V3.17871L46.8447 3.17969L46.8525 3.18359L46.8574 3.18555V3.18457C48.7793 4.01635 50.7035 5.05673 52.4805 6.25879L52.4834 6.26074C54.2182 7.41885 55.8867 8.80272 57.3936 10.3096L57.3975 10.3135V10.3145L57.4072 10.3242C58.8795 11.8223 60.2371 13.438 61.4443 15.2227C62.6383 16.9877 63.6856 18.8707 64.5283 20.8711L64.5293 20.8721C65.3359 22.7786 65.9602 24.734 66.4014 26.7363V26.7373L66.4883 27.1436V27.1445L66.4912 27.1572C66.9337 29.3448 67.1689 31.5897 67.1689 33.8643C67.1689 36.1387 66.9336 38.3829 66.4912 40.5703L66.4883 40.583V40.585C66.0501 42.6988 65.4065 44.7641 64.5596 46.7559L64.5234 46.8438C63.6848 48.8323 62.6411 50.7358 61.4443 52.5049L61.4395 52.5107L61.4355 52.5166L61.4346 52.5176C60.267 54.2293 58.9135 55.898 57.3936 57.418C55.902 58.9095 54.2554 60.2681 52.4805 61.4688C50.7234 62.6574 48.8488 63.6993 46.8584 64.54L46.8262 64.5547C45.0468 65.3072 43.2253 65.9016 41.3623 66.3359L40.5605 66.5127L40.5547 66.5137L40.5459 66.5156H40.5449C38.3376 66.9571 36.1174 67.1934 33.8389 67.1934C31.563 67.1933 29.3167 66.9576 27.1279 66.5146L27.123 66.5137L27.1201 66.5127H27.1182C24.9746 66.0683 22.88 65.4135 20.8623 64.5488L20.8545 64.5459L20.8506 64.5439H20.8496C19.1673 63.816 17.4832 62.9282 15.8975 61.9121L15.2227 61.4688L15.2158 61.4639C13.5019 60.2953 11.8313 58.9397 10.3096 57.418L10.3018 57.4092L10.2959 57.4033C8.82366 55.9052 7.46602 54.2895 6.25879 52.5049H6.25977L6.24902 52.4893C5.06178 50.7081 4.01559 48.8287 3.17285 46.8271L3.17188 46.8242L2.8584 46.0664C2.15052 44.2889 1.60266 42.4556 1.21484 40.585V40.583L1.21191 40.5703C0.769517 38.3829 0.534212 36.1387 0.53418 33.8643C0.53418 31.5897 0.769482 29.3448 1.21191 27.1572L1.21289 27.1553L1.21484 27.1455L1.21582 27.1367L1.2168 27.1328C1.66015 24.9732 2.3112 22.8869 3.1709 20.8779L3.33496 20.498L3.33398 20.4971C4.14755 18.6361 5.13887 16.8789 6.25781 15.2246L6.26367 15.2158C7.43302 13.5008 8.81303 11.8061 10.3096 10.3096C11.8011 8.81805 13.4478 7.45947 15.2227 6.25879C16.8776 5.1393 18.6363 4.14883 20.498 3.33496L20.8789 3.1709V3.17188C22.8916 2.31056 24.9803 1.65806 27.1182 1.21484H27.1201L27.124 1.21387L27.1279 1.21191L27.1289 1.21289C29.3176 0.769973 31.5631 0.534217 33.8389 0.53418Z" stroke="black" stroke-width="1.06872"/>
</g>
<path d="M38.2198 37.8785C41.7097 46.9568 43.1467 54.5525 43.5116 56.7423C40.5463 57.9968 37.2616 58.7038 33.8401 58.7038C28.0464 58.7038 22.7773 56.7195 18.5574 53.4348C18.6487 53.2524 23.4616 43.0107 38.0599 37.9241C38.1056 37.9012 38.1741 37.8785 38.2198 37.8785Z" fill="#E74D89"/>
<path d="M42.8729 36.7151C50.9018 35.4378 57.8586 37.6274 58.3608 37.81C57.2659 44.7214 53.2742 50.6976 47.7086 54.4613C47.4577 52.9558 46.1348 45.6794 42.8729 36.7151Z" fill="#E74D89"/>
<path d="M34.5017 29.5528C35.2088 30.9442 35.893 32.3813 36.5317 33.7727C36.2124 33.8639 35.8702 33.955 35.5509 34.0691C22.1536 38.3981 15.3565 50.4198 15.3413 50.4467C11.3952 46.0671 8.97724 40.2506 8.97724 33.8638C8.97724 33.5901 9.00011 33.3393 9.00012 33.0884C9.43351 33.0884 21.7053 33.3849 34.5017 29.5528Z" fill="#E74D89"/>
<path d="M53.0005 18.0794C56.4676 22.322 58.5889 27.7279 58.6574 33.6129C58.3145 33.5443 49.8979 31.7198 41.3674 32.7918C41.1849 32.3584 41.0025 31.9478 40.82 31.5144C40.2954 30.2826 39.7479 29.0965 39.1549 27.9104C48.9604 23.9198 52.9526 18.151 53.0005 18.0794Z" fill="#E74D89"/>
<path d="M23.2335 11.396C23.5756 11.8294 28.1604 18.0794 32.4715 25.7207C20.5419 28.8685 10.1862 28.7544 9.54748 28.7316C11.1214 21.0447 16.2993 14.6579 23.2335 11.396Z" fill="#E74D89"/>
<path d="M33.8401 9.02386C40.1357 9.02386 45.8611 11.3732 50.2406 15.2281C50.172 15.3197 46.659 20.7026 37.2616 24.2152C33.0192 16.4146 28.3435 10.2105 27.9553 9.70815C29.8485 9.27478 31.8101 9.02386 33.8401 9.02386Z" fill="#E74D89"/>
<path d="M62.3298 28.0017C61.9421 26.1313 61.3718 24.3065 60.6191 22.5273C59.8892 20.7937 58.9768 19.1514 57.9275 17.6003C56.8782 16.0493 55.6921 14.635 54.392 13.3121C53.069 11.9891 51.6091 10.7801 50.1037 9.77651C48.5526 8.72725 46.8647 7.81486 45.1767 7.08494C43.4204 6.33221 41.5956 5.76196 39.7023 5.37419C37.7863 4.98642 35.8246 4.78113 33.8402 4.78113C31.8557 4.78113 29.8941 4.98642 27.978 5.37419C26.1076 5.76196 24.2828 6.33221 22.5264 7.08494C20.7929 7.81486 19.1506 8.72725 17.5995 9.77651C16.0484 10.8258 14.6114 12.0119 13.3112 13.3121C12.011 14.6122 10.8021 16.0949 9.77566 17.6003C8.7264 19.1514 7.814 20.7937 7.08408 22.5273C6.33135 24.2836 5.7611 26.1084 5.37333 28.0017C4.98556 29.9177 4.78027 31.8794 4.78027 33.8638C4.78027 35.8483 4.98556 37.81 5.37333 39.726C5.7611 41.5964 6.33135 43.4212 7.08408 45.1776C7.814 46.9111 8.7264 48.5535 9.77566 50.1273C10.8249 51.6784 12.011 53.0926 13.3112 54.4156C14.6342 55.7386 16.094 56.9247 17.5995 57.9512C19.1506 59.0004 20.8385 59.9128 22.5264 60.6428C24.2828 61.3955 26.1076 61.9657 27.978 62.3535C29.8941 62.7413 31.8557 62.9466 33.8402 62.9466C35.8246 62.9466 37.7635 62.7413 39.7023 62.3535C41.5728 61.9657 43.3976 61.3955 45.1767 60.6428C46.9103 59.9128 48.5526 59.0004 50.1037 57.9512C51.6548 56.9019 53.0918 55.7158 54.392 54.4156C55.7149 53.0926 56.9011 51.6328 57.9275 50.1273C58.9768 48.5763 59.8892 46.9111 60.6191 45.1776C61.3718 43.4212 61.9421 41.5964 62.3298 39.726C62.7176 37.81 62.9229 35.8483 62.9229 33.8638C62.9229 31.8794 62.7176 29.9177 62.3298 28.0017ZM33.8401 9.02386C40.1357 9.02386 45.8611 11.3732 50.2406 15.2281C50.1722 15.3194 46.6593 20.7025 37.2616 24.2152C33.0189 16.4142 28.343 10.21 27.9553 9.70815C29.8485 9.27478 31.8101 9.02386 33.8401 9.02386ZM27.8412 9.7537C27.8412 9.73089 27.864 9.73089 27.8412 9.7537V9.7537ZM23.2335 11.396C23.5756 11.8294 28.1604 18.0794 32.4715 25.7207C20.5419 28.8685 10.1862 28.7544 9.54748 28.7316C11.1214 21.0447 16.2993 14.6579 23.2335 11.396ZM15.3413 50.4467C11.3952 46.0671 8.97724 40.2506 8.97724 33.8638C8.97724 33.5901 9.00011 33.3393 9.00012 33.0884C9.43351 33.0884 21.7053 33.3849 34.5017 29.5528C35.2088 30.9442 35.893 32.3813 36.5317 33.7727C36.2124 33.8639 35.8702 33.955 35.5509 34.0691C22.1386 38.403 15.3413 50.4467 15.3413 50.4467ZM33.8401 58.7038C28.0464 58.7038 22.7773 56.7195 18.5574 53.4348C18.6487 53.2524 23.4616 43.0107 38.0599 37.9241C38.1056 37.9012 38.1741 37.8785 38.2198 37.8785C41.7097 46.9568 43.1467 54.5525 43.5116 56.7423C40.5463 57.9968 37.2616 58.7038 33.8401 58.7038ZM47.7086 54.4613C47.4577 52.9558 46.1348 45.6794 42.8729 36.7151C50.902 35.4377 57.859 37.6275 58.3608 37.81C57.2659 44.7214 53.2742 50.6976 47.7086 54.4613ZM41.3674 32.7918C41.1849 32.3584 41.0025 31.9478 40.82 31.5144C40.2954 30.2826 39.7479 29.0965 39.1549 27.9104C48.9632 23.9186 52.9549 18.1478 53.0005 18.0794C56.4676 22.322 58.5889 27.7279 58.6574 33.6129C58.3152 33.5444 49.8983 31.7197 41.3674 32.7918Z" fill="#B2215A"/>
<path d="M33.8398 4.28113C35.6066 4.28113 37.3552 4.44095 39.0693 4.745L39.8018 4.88367L39.8027 4.88464C41.488 5.22982 43.1207 5.71678 44.7002 6.34656L45.374 6.62488L45.375 6.62585C47.0888 7.36695 48.8034 8.29344 50.3809 9.36023C51.7236 10.2554 53.0284 11.3096 54.2344 12.4598L54.7451 12.9589L54.749 12.9618C56.0675 14.3034 57.2735 15.741 58.3418 17.3202C59.4073 18.8954 60.3362 20.5662 61.0801 22.3329H61.0791C61.7487 23.9155 62.2774 25.5339 62.6631 27.1884L62.8193 27.9003L62.8203 27.9022C63.2144 29.8497 63.4229 31.8451 63.4229 33.8641C63.4228 35.883 63.2144 37.8778 62.8203 39.8251L62.8193 39.827C62.4249 41.7296 61.8452 43.5872 61.0791 45.3749C60.3362 47.1387 59.4078 48.8312 58.3418 50.4071L58.3408 50.4091C57.2984 51.9379 56.0921 53.4224 54.7451 54.7694C53.4223 56.0921 51.9608 57.2983 50.3838 58.3651C49.0055 59.2975 47.5542 60.1256 46.0293 60.8163L45.3711 61.1034C43.5623 61.8686 41.7063 62.4482 39.8037 62.8427L39.8008 62.8436C37.8318 63.2374 35.8594 63.4462 33.8398 63.4462C31.821 63.4461 29.8262 63.2377 27.8789 62.8436L27.877 62.8427C25.9744 62.4482 24.1167 61.8685 22.3291 61.1024L22.3281 61.1014C20.6132 60.3599 18.8976 59.4328 17.3193 58.3651L17.3174 58.3641C15.7888 57.3219 14.3048 56.1162 12.958 54.7694L12.9541 54.7665C11.6355 53.4248 10.4297 51.9864 9.36133 50.4071L9.35938 50.4052C8.29591 48.81 7.36776 47.1406 6.62402 45.3749L6.3457 44.701C5.71601 43.1221 5.22892 41.4918 4.88379 39.827L4.88281 39.8251C4.48873 37.8778 4.28029 35.883 4.28027 33.8641C4.28027 31.8451 4.48868 29.8497 4.88281 27.9022L4.88379 27.9012C5.27827 25.9753 5.85783 24.1177 6.62402 22.33C7.36771 20.5643 8.29635 18.8945 9.36133 17.3202L9.3623 17.3182C10.4048 15.7892 11.6341 14.2828 12.958 12.9589C14.2809 11.636 15.7422 10.4291 17.3193 9.36218C18.8937 8.29721 20.5635 7.36857 22.3291 6.62488C24.1167 5.85875 25.9744 5.27908 27.877 4.88464L27.8789 4.88367C29.8262 4.48958 31.821 4.28115 33.8398 4.28113Z" stroke="black"/>
<defs>
<filter id="filter0_d_1481_4803" x="0" y="0" width="70.9093" height="70.9337" filterUnits="userSpaceOnUse" color-interpolation-filters="sRGB">
<feFlood flood-opacity="0" result="BackgroundImageFix"/>
<feColorMatrix in="SourceAlpha" type="matrix" values="0 0 0 0 0 0 0 0 0 0 0 0 0 0 0 0 0 0 127 0" result="hardAlpha"/>
<feOffset dx="3.20617" dy="3.20617"/>
<feColorMatrix type="matrix" values="0 0 0 0 0 0 0 0 0 0 0 0 0 0 0 0 0 0 1 0"/>
<feBlend mode="normal" in2="BackgroundImageFix" result="effect1_dropShadow_1481_4803"/>
<feBlend mode="normal" in="SourceGraphic" in2="effect1_dropShadow_1481_4803" result="shape"/>
</filter>
</defs>
</svg>
