<svg width="17" height="15" viewBox="0 0 17 15" fill="none" xmlns="http://www.w3.org/2000/svg">
<path d="M8.38235 9.02962C9.22541 9.02962 9.90885 8.34483 9.90885 7.5001C9.90885 6.65537 9.22541 5.97058 8.38235 5.97058C7.53929 5.97058 6.85585 6.65537 6.85585 7.5001C6.85585 8.34483 7.53929 9.02962 8.38235 9.02962Z" fill="#020202"/>
<path d="M14.1804 4.97764C13.8858 4.8703 13.5778 4.76297 13.2564 4.66905C13.3368 4.34705 13.4037 4.02504 13.4573 3.71646C13.7385 1.94544 13.4305 0.697674 12.5735 0.214669C12.3191 0.067084 12.0379 0 11.7165 0C10.7792 0 9.58748 0.697674 8.38235 1.86494C7.17722 0.697674 5.98548 0 5.04816 0C4.72679 0 4.44559 0.067084 4.19118 0.214669C3.33419 0.711091 3.02622 1.95885 3.30741 3.71646C3.36098 4.02504 3.42793 4.34705 3.50827 4.66905C3.1869 4.76297 2.87892 4.85689 2.58434 4.97764C0.910543 5.62165 0 6.50716 0 7.5C0 8.49284 0.923934 9.37835 2.58434 10.0224C2.87892 10.1297 3.1869 10.237 3.50827 10.3309C3.42793 10.653 3.36098 10.975 3.30741 11.2835C3.02622 13.0546 3.33419 14.3023 4.19118 14.7853C4.44559 14.9329 4.72679 15 5.04816 15C5.99887 15 7.19061 14.3023 8.38235 13.1351C9.58748 14.3023 10.7792 15 11.7165 15C12.0379 15 12.3191 14.9329 12.5735 14.7853C13.4305 14.2889 13.7385 13.0411 13.4573 11.2835C13.4037 10.975 13.3368 10.653 13.2564 10.3309C13.5778 10.237 13.8858 10.1431 14.1804 10.0224C15.8542 9.37835 16.7647 8.49284 16.7647 7.5C16.7647 6.50716 15.8542 5.62165 14.1804 4.97764ZM12.1986 0.88551C12.7476 1.20751 12.9351 2.20036 12.7074 3.60912C12.6673 3.89088 12.6003 4.18605 12.52 4.49463C11.8237 4.33363 11.0872 4.2263 10.3106 4.15921C9.85529 3.51521 9.38663 2.93828 8.91797 2.41503C9.90885 1.4356 10.9131 0.764758 11.7299 0.764758C11.904 0.764758 12.0647 0.805009 12.1986 0.88551ZM10.6989 8.84168C10.4579 9.27102 10.1767 9.70036 9.88207 10.1297C9.38663 10.1699 8.89119 10.1834 8.38235 10.1834C7.86013 10.1834 7.36469 10.1699 6.88263 10.1297C6.58805 9.70036 6.32024 9.27102 6.07921 8.84168C5.8248 8.39893 5.58377 7.94275 5.36953 7.5C5.58377 7.05724 5.8248 6.60107 6.07921 6.15832C6.32024 5.72898 6.60144 5.29964 6.89603 4.8703C7.39147 4.83005 7.88691 4.81664 8.39574 4.81664C8.91797 4.81664 9.41341 4.83005 9.89546 4.8703C10.19 5.29964 10.4579 5.72898 10.6989 6.15832C10.9533 6.60107 11.1943 7.05724 11.4086 7.5C11.1809 7.94275 10.9533 8.38551 10.6989 8.84168ZM11.8103 8.39893C12.0111 8.86851 12.1718 9.32469 12.3191 9.78086C11.8638 9.88819 11.3818 9.96869 10.873 10.0358C11.0336 9.78086 11.2077 9.51252 11.355 9.23077C11.5157 8.94902 11.663 8.66726 11.8103 8.39893ZM8.38235 12.0349C8.06098 11.686 7.75301 11.3104 7.45842 10.9213C7.7664 10.9347 8.07438 10.9481 8.38235 10.9481C8.69033 10.9481 8.99831 10.9347 9.30629 10.9213C9.0117 11.3104 8.70372 11.686 8.38235 12.0349ZM5.89175 10.0224C5.38292 9.95528 4.90086 9.87478 4.44559 9.76744C4.59289 9.32469 4.75357 8.8551 4.95443 8.38551C5.10172 8.65385 5.24901 8.9356 5.4097 9.20393C5.57038 9.4991 5.73107 9.75402 5.89175 10.0224ZM4.95443 6.60107C4.75357 6.13148 4.59289 5.67531 4.44559 5.21914C4.90086 5.11181 5.38292 5.03131 5.89175 4.96422C5.73107 5.21914 5.55699 5.48748 5.4097 5.76923C5.24901 6.05098 5.10172 6.33274 4.95443 6.60107ZM8.38235 2.96512C8.70372 3.31395 9.0117 3.68962 9.30629 4.07871C8.99831 4.06529 8.69033 4.05188 8.38235 4.05188C8.07438 4.05188 7.7664 4.06529 7.45842 4.07871C7.75301 3.68962 8.06098 3.31395 8.38235 2.96512ZM11.355 5.78265L10.873 4.97764C11.3818 5.04472 11.8638 5.12522 12.3191 5.23256C12.1718 5.67531 12.0111 6.1449 11.8103 6.61449C11.663 6.33274 11.5157 6.05098 11.355 5.78265ZM4.05727 3.60912C3.82964 2.20036 4.0171 1.20751 4.56611 0.88551C4.70001 0.805009 4.86069 0.764758 5.03477 0.764758C5.83819 0.764758 6.84246 1.42218 7.84674 2.41503C7.37808 2.92487 6.90941 3.51521 6.45414 4.15921C5.6775 4.2263 4.94104 4.34705 4.24474 4.49463C4.1644 4.18605 4.11083 3.89088 4.05727 3.60912ZM0.749859 7.5C0.749859 6.86941 1.51311 6.19857 2.85214 5.70215C3.11995 5.59481 3.41454 5.50089 3.70912 5.42039C3.92337 6.09123 4.19118 6.80233 4.51254 7.51342C4.19118 8.22451 3.90998 8.92218 3.70912 9.59302C1.86126 9.05635 0.749859 8.25134 0.749859 7.5ZM4.56611 14.1145C4.0171 13.7925 3.82964 12.7996 4.05727 11.3909C4.09744 11.1091 4.1644 10.814 4.24474 10.5054C4.94104 10.6664 5.6775 10.7737 6.45414 10.8408C6.90941 11.4848 7.37808 12.0617 7.84674 12.585C6.85585 13.5644 5.85158 14.2352 5.03477 14.2352C4.86069 14.2352 4.70001 14.195 4.56611 14.1145ZM12.7074 11.3909C12.9351 12.7996 12.7476 13.7925 12.1986 14.1145C12.0647 14.195 11.904 14.2352 11.7299 14.2352C10.9265 14.2352 9.92224 13.5778 8.91797 12.585C9.38663 12.0751 9.85529 11.4848 10.3106 10.8408C11.0872 10.7737 11.8237 10.653 12.52 10.5054C12.6003 10.814 12.6539 11.1091 12.7074 11.3909ZM13.9126 9.29785C13.6448 9.40519 13.3502 9.49911 13.0556 9.57961C12.8413 8.90876 12.5735 8.19767 12.2522 7.48658C12.5735 6.77549 12.8547 6.07782 13.0556 5.40698C14.9034 5.94365 16.0148 6.74866 16.0148 7.5C16.0148 8.13059 15.2382 8.80143 13.9126 9.29785Z" fill="#020202"/>
</svg>
