<svg width="12" height="17" viewBox="0 0 12 17" fill="none" xmlns="http://www.w3.org/2000/svg">
<path fill-rule="evenodd" clip-rule="evenodd" d="M3.18137 6.36054C1.99937 6.36054 1.04118 7.31841 1.04118 8.5C1.04118 9.68159 1.99937 10.6395 3.18137 10.6395H5.37941V8.5V6.36054H3.18137ZM8.56078 5.31973L8.61863 5.31973C9.80063 5.31973 10.7588 4.36186 10.7588 3.18027C10.7588 1.99868 9.80063 1.04082 8.61863 1.04082H6.42059V5.31973L8.56078 5.31973ZM10.3632 5.84014C11.2286 5.27177 11.8 4.29272 11.8 3.18027C11.8 1.42386 10.3757 0 8.61863 0H6.42059H5.9H5.37941H3.18137C1.42435 0 0 1.42386 0 3.18027C0 4.29272 0.571378 5.27177 1.43677 5.84014C0.571378 6.4085 0 7.38755 0 8.5C0 9.61245 0.571378 10.5915 1.43677 11.1599C0.571378 11.7282 0 12.7073 0 13.8197C0 15.5798 1.44239 17 3.19576 17C4.96509 17 6.42059 15.5668 6.42059 13.7908V11.6803V11.1599V10.8531C6.98569 11.367 7.73664 11.6803 8.56078 11.6803H8.61863C10.3757 11.6803 11.8 10.2564 11.8 8.5C11.8 7.38755 11.2286 6.4085 10.3632 5.84014ZM8.61863 6.36054L8.56078 6.36054C7.37879 6.36054 6.42059 7.31841 6.42059 8.5C6.42059 9.68159 7.37879 10.6395 8.56078 10.6395H8.61863C9.80063 10.6395 10.7588 9.68159 10.7588 8.5C10.7588 7.31841 9.80063 6.36054 8.61863 6.36054ZM1.04118 13.8197C1.04118 12.6381 1.99937 11.6803 3.18137 11.6803H5.37941V13.7908C5.37941 14.9847 4.39738 15.9592 3.19576 15.9592C2.0101 15.9592 1.04118 14.9977 1.04118 13.8197ZM5.37941 5.31973H3.18137C1.99937 5.31973 1.04118 4.36186 1.04118 3.18027C1.04118 1.99868 1.99937 1.04082 3.18137 1.04082H5.37941V5.31973Z" fill="black"/>
</svg>
