<svg width="67" height="80" viewBox="0 0 67 80" fill="none" xmlns="http://www.w3.org/2000/svg">
<g filter="url(#filter0_d_501_6112)">
<path d="M46.2447 0.964613C47.7346 0.490751 47.9967 1.46125 48.1052 2.70517C48.1984 3.77268 48.3257 4.89292 48.4722 5.95412C48.8744 9.04016 49.4038 12.108 50.0607 15.1503C52.0038 24.4691 54.8463 33.886 59.8842 42.0344C60.2058 42.5543 60.6788 43.3172 60.9128 43.8615C61.5659 45.3791 58.6978 45.8741 57.6631 46.1809C56.3973 46.544 55.1449 46.9531 53.9087 47.4081C47.7033 49.7013 42.3541 53.8493 38.5874 59.2881C37.594 60.7007 36.5287 62.4252 35.817 63.9958C37.5623 66.4195 36.6456 68.244 35.4785 70.6217C34.6856 72.2362 34.23 74.54 32.3415 75.2796C29.2691 76.4824 23.9492 75.255 20.9552 74.1976L20.5491 74.0576C15.5447 72.3244 12.2311 70.6115 14.8566 64.8728C15.9406 62.503 16.5526 60.3965 19.1344 59.1892C20.1739 52.7779 19.3976 46.2041 16.8932 40.2114C15.842 37.7633 14.5076 35.4475 12.9172 33.3109C12.2107 32.3599 11.4069 31.4518 10.7415 30.4955C10.3369 29.9136 10.5496 29.3368 11.0966 28.993C11.8588 28.5139 12.7108 28.0555 13.4891 27.6161C14.9037 26.825 16.3048 26.0097 17.6922 25.1717C25.718 20.3647 32.3665 15.3822 38.9712 8.79644C40.4399 7.33506 41.8656 5.83111 43.2461 4.28649C43.8541 3.59932 45.6661 1.44543 46.2447 0.964613Z" fill="black"/>
</g>
<path d="M45.1806 7.13313C45.3052 7.30203 45.7181 10.2027 45.817 10.7387C46.3906 13.9976 47.0799 17.2346 47.8829 20.4444C49.549 27.1539 51.8048 33.8478 55.2983 39.8413C55.9215 40.9114 56.6078 41.9316 57.2342 42.9974C56.1573 43.3245 55.0885 43.6785 54.0297 44.0589C46.8652 46.6241 40.5241 51.757 36.2807 58.0137C35.3408 59.399 34.2902 60.9806 33.5734 62.4919C32.5837 61.9872 31.0159 61.3404 29.9727 60.9179C31.3479 56.6332 32.6761 52.3334 33.9569 48.0192C34.9464 44.6187 35.8537 41.0723 36.8551 37.7175C40.3303 37.3736 43.6958 34.8813 44.1067 31.3121C44.5502 27.459 41.8633 24.4188 38.1327 24.006C35.9017 23.7676 33.6684 24.4357 31.9346 25.8595C28.9522 28.2997 28.3473 32.2884 30.8525 35.3071C31.2518 35.7037 31.693 36.1823 32.2384 36.3556C32.7643 36.5232 33.6763 36.1135 33.7838 35.5492C33.9671 34.586 32.8928 33.8086 32.4807 33.0209C31.9271 32.0061 31.8425 31.1553 32.1522 30.0505C33.7 24.5293 43.3437 25.7735 40.8785 32.1845C40.1844 33.9894 37.6563 35.1293 35.8865 35.0307C35.0155 34.9826 34.5041 35.0867 34.3319 36.0563C33.8156 38.2181 33.2457 40.393 32.6479 42.5361C30.9142 48.398 29.1195 54.2701 27.2318 60.0826C26.259 59.8019 25.2731 59.5701 24.2777 59.3879C23.5314 59.2548 22.5263 59.1327 21.8183 58.9416C23.4698 50.5176 21.707 42.4393 17.4609 35.0273C16.5992 33.5231 15.3771 32.04 14.4171 30.5881C15.1881 30.028 16.8106 29.1709 17.6931 28.6515C19.6602 27.4927 21.6018 26.2909 23.5163 25.0472C29.3462 21.3019 34.8429 17.062 39.9454 12.3742C41.7818 10.6662 43.4381 8.94291 45.1806 7.13313Z" fill="#FFDB33"/>
<defs>
<filter id="filter0_d_501_6112" x="10.5314" y="0.84225" width="53.4771" height="77.9341" filterUnits="userSpaceOnUse" color-interpolation-filters="sRGB">
<feFlood flood-opacity="0" result="BackgroundImageFix"/>
<feColorMatrix in="SourceAlpha" type="matrix" values="0 0 0 0 0 0 0 0 0 0 0 0 0 0 0 0 0 0 127 0" result="hardAlpha"/>
<feOffset dx="3" dy="3"/>
<feColorMatrix type="matrix" values="0 0 0 0 0 0 0 0 0 0 0 0 0 0 0 0 0 0 1 0"/>
<feBlend mode="normal" in2="BackgroundImageFix" result="effect1_dropShadow_501_6112"/>
<feBlend mode="normal" in="SourceGraphic" in2="effect1_dropShadow_501_6112" result="shape"/>
</filter>
</defs>
</svg>
