<svg width="150" height="150" viewBox="0 0 150 150" fill="none" xmlns="http://www.w3.org/2000/svg">
<g clip-path="url(#clip0_64_241)">
<path d="M86.6516 37.0307C86.7463 37.1916 86.804 37.8343 86.8172 38.0422C86.9078 39.466 87.3064 40.6874 87.6975 42.0469L93.0211 61.136L95.3367 69.4013C95.7471 70.8615 96.2213 72.3576 96.5716 73.8273C95.6854 73.9609 94.5134 74.2896 93.6808 74.6292C88.3499 76.8013 84.9646 80.5545 82.7307 85.7748C84.0569 86.2837 85.6873 86.5041 87.0732 87.0589C86.8629 88.2372 86.716 89.9735 86.5701 91.1979L85.7448 97.645L84.3689 108.676C84.2356 109.812 84.0895 110.946 83.9316 112.079C83.6686 113.936 83.4816 114.937 83.7544 116.839C82.693 116.788 81.5277 116.385 80.4651 116.13L75.0799 114.871L54.3111 110.093C53.6485 109.918 52.8959 109.778 52.2167 109.611C49.47 108.93 46.7162 108.277 43.9554 107.654C39.3392 106.584 34.5453 105.436 29.922 104.433L41.2387 84.9033L44.3886 79.4843C44.8972 78.6117 45.8251 77.1136 46.1995 76.232C48.1022 76.5847 49.8292 77.0334 51.7801 77.3554C51.8794 76.8045 52.1845 75.8575 52.3244 75.2575C52.7547 73.4184 52.837 71.5149 52.5669 69.6456C51.9903 65.6094 49.8231 61.9716 46.5483 59.5428L86.6516 37.0307Z" fill="black"/>
<path d="M85.1933 44.526C85.3002 44.7565 85.7469 46.4694 85.8378 46.7995L87.3251 52.1876L92.7975 71.7115C87.6311 73.2943 81.0226 79.6839 79.8499 85.0404C79.5004 84.8932 78.5131 84.6387 78.1023 84.5249L74.4928 83.5491L63.7189 80.6212C62.3084 80.2297 60.8374 79.8867 59.4517 79.4403C59.6234 78.9451 59.7816 78.4446 59.9252 77.9405C61.7842 71.4436 60.3613 64.6391 57.1408 58.8234L61.1931 56.341C64.206 54.3929 67.4931 52.4319 70.5595 50.5388L82.373 43.2366C81.4328 45.5895 80.532 48.0439 79.6272 50.4166L74.4088 64.0981C69.1144 64.2985 67.0799 70.5821 71.1759 73.8545C72.2473 74.7104 73.8892 74.9663 75.2212 74.8116C78.0487 74.4832 80.2715 71.5433 79.7592 68.7336C79.4899 67.1632 78.6518 65.8888 77.3612 64.9238C77.9363 63.6519 78.6134 61.6867 79.1312 60.3285L83.0528 50.0468C83.6895 48.3795 84.4842 46.107 85.1933 44.526Z" fill="#FFFFFE"/>
<path d="M82.2322 101.062C82.1159 101.818 81.9912 102.581 81.8988 103.341L81.1567 109.51C81.0233 110.609 80.8421 111.791 80.7508 112.886C79.4918 112.635 77.6657 112.017 76.3921 111.635L68.8691 109.387L56.0725 105.619C52.0365 104.398 47.9915 103.207 43.9381 102.046C42.6868 101.658 41.662 101.329 40.3849 101.067L44.1045 94.6549C44.7767 93.5132 45.7977 91.8932 46.365 90.7405C48.3967 91.3959 50.6003 91.9775 52.6569 92.5777L67.5949 96.8614L77.1075 99.6536C78.8775 100.166 80.4177 100.641 82.2322 101.062Z" fill="#01ABFF"/>
<path d="M83.7013 89.2444C83.7205 89.2775 82.731 97.2199 82.5834 98.0052C79.4592 97.1606 76.1997 96.1578 73.0798 95.2487L50.6469 88.7575L47.9344 87.995C48.297 87.5069 48.9775 86.2535 49.3048 85.687C50.2559 84.0029 51.2299 82.3307 52.2255 80.672C53.6633 81.1324 55.3061 81.5507 56.7723 81.953L65.3205 84.2623C71.4391 85.9112 77.57 87.6498 83.7013 89.2444Z" fill="#01ABFF"/>
<path d="M75.4006 67.3917C76.5505 67.9381 77.0387 69.3141 76.4903 70.463C75.942 71.612 74.5652 72.0978 73.4172 71.5476C72.2718 70.9986 71.7874 69.6258 72.3345 68.4796C72.8815 67.3333 74.2535 66.8466 75.4006 67.3917Z" fill="#FFFFFE"/>
<path d="M98.1132 38.1092C98.2804 38.3241 99.2837 40.4441 99.5103 40.8858C97.4378 41.9444 95.217 42.972 93.1096 43.9965C92.9172 43.7677 91.9521 41.6815 91.7322 41.2419C93.5569 40.328 96.4587 39.0833 98.1132 38.1092Z" fill="black"/>
<path d="M75.8738 27.512C76.0536 27.7161 76.9586 29.2298 77.1658 29.5673C77.9867 30.9059 78.8178 32.2383 79.6591 33.5644C78.8256 34.0376 77.877 34.6823 77.0608 35.2082C75.8311 33.2906 74.4248 31.1067 73.2843 29.1396C74.0972 28.6578 75.1152 28.0576 75.8738 27.512Z" fill="black"/>
<path d="M91.8951 27.1714C92.0159 27.2162 92.0073 27.2129 92.0915 27.3116C92.018 27.6283 91.5014 28.7495 91.3378 29.13L89.6241 33.1648L87.1007 32.1337C87.0092 32.0796 86.9159 32.0163 86.8263 31.9581C86.8028 31.7902 89.0391 26.6381 89.3074 26.0546C89.942 26.389 91.1892 26.8707 91.8951 27.1714Z" fill="black"/>
</g>
<defs>
<clipPath id="clip0_64_241">
<rect width="107.068" height="107.068" fill="white" transform="translate(63.3462) rotate(36.2739)"/>
</clipPath>
</defs>
</svg>
