<svg width="57" height="57" viewBox="0 0 57 57" fill="none" xmlns="http://www.w3.org/2000/svg">
<g filter="url(#filter0_d_681_2562)">
<path d="M19.3037 9.86927C20.0406 9.1075 20.9426 8.52241 22.0461 8.23535L22.0481 8.23462C22.0542 8.233 22.0573 8.23161 22.0653 8.2295L22.066 8.23018C22.0702 8.22912 22.0742 8.22774 22.0791 8.22651L22.0811 8.22579C23.9309 7.74265 25.7384 8.24537 27.2771 9.16244C28.7882 10.0631 30.2132 11.456 31.5285 13.157L31.6809 13.3534L31.9086 13.2557C35.5438 11.7099 39.5608 11.2396 42.2677 13.8581C44.9745 16.4766 44.6369 20.5064 43.2125 24.1908L43.1231 24.4222L43.3251 24.5674C45.0597 25.8166 46.4922 27.1901 47.4416 28.6691C48.415 30.1855 48.976 31.9793 48.5656 33.8502C48.3187 34.977 47.7597 35.9081 47.0157 36.6771C45.8949 37.8356 44.3532 38.5314 42.7784 38.9491C41.944 39.1704 41.0429 39.3288 40.0929 39.4301L39.8254 39.458L39.8064 39.7263C39.7392 40.6761 39.6123 41.5807 39.4187 42.4221C39.0517 44.0175 38.4009 45.5823 37.2742 46.7471C36.5833 47.4614 35.7472 48.0209 34.7361 48.3245L34.5312 48.3817L34.5292 48.3825L34.5072 48.3884C34.5043 48.3891 34.5016 48.3895 34.5003 48.3899L34.4962 48.3913L34.1494 48.4703C32.4214 48.8094 30.7432 48.3135 29.3009 47.4539C27.7896 46.5531 26.3635 45.1606 25.0481 43.4594L24.8963 43.2637L24.6687 43.3601C21.0659 44.8817 17.0226 45.3821 14.3103 42.7583C11.6036 40.1399 11.9398 36.1099 13.3641 32.4256L13.4535 32.1942L13.2528 32.049C11.5183 30.7999 10.0858 29.4264 9.13635 27.9473C8.19419 26.4794 7.63871 24.7522 7.97605 22.947L8.01235 22.762C8.25962 21.6371 8.81922 20.7074 9.56227 19.9393C10.683 18.7809 12.2242 18.0857 13.7989 17.668C14.6363 17.4459 15.5409 17.2874 16.4947 17.1861L16.7615 17.1575L16.7813 16.8899C16.8509 15.9334 16.9793 15.0238 17.1735 14.1796C17.5387 12.5918 18.183 11.0278 19.3037 9.86927Z" fill="#01ABFF" stroke="black" stroke-width="0.642805"/>
<path d="M30.7496 30.6884C31.9812 29.4152 31.8781 27.3175 30.5192 26.003C29.1603 24.6884 27.0603 24.6549 25.8287 25.9281C24.5971 27.2012 24.7002 29.299 26.0591 30.6135C27.4179 31.928 29.5179 31.9616 30.7496 30.6884Z" fill="white"/>
<path d="M32.7021 15.6271C32.0991 15.9049 31.4765 16.203 30.8559 16.5422C30.4553 15.9198 30.0351 15.3176 29.6169 14.7565C27.1788 11.5758 24.7217 10.0992 22.6928 10.6418C22.0837 10.7963 21.565 11.1166 21.0955 11.6019C19.7261 13.0174 19.1074 15.9029 19.2245 19.5392C15.5863 19.5428 12.723 20.2568 11.3536 21.6723C10.8841 22.1576 10.5812 22.6867 10.447 23.3006C9.99357 25.3673 11.5508 27.7741 14.789 30.0845C15.3636 30.4838 15.9794 30.8838 16.6148 31.2636C16.2964 31.8951 15.9975 32.5063 15.7614 33.1391C14.3522 36.669 14.4464 39.422 16.0435 40.9671C17.6407 42.5121 20.4149 42.4948 23.8766 40.9894C24.4796 40.7116 25.1022 40.4135 25.7227 40.0744C26.1233 40.6968 26.5435 41.299 26.9617 41.8601C29.3998 45.0407 31.8569 46.5173 33.8859 45.9748C34.495 45.8202 35.0137 45.4999 35.4832 45.0146C36.8721 43.5789 37.4908 40.6935 37.3541 37.0773C40.9924 37.0738 43.8557 36.3597 45.225 34.9442C45.6945 34.4589 45.9974 33.9299 46.1317 33.316C46.5851 31.2493 45.0278 28.8425 41.7896 26.532C41.215 26.1327 40.5992 25.7327 39.9638 25.353C40.2822 24.7215 40.5811 24.1102 40.8172 23.4775C42.2265 19.9476 42.1322 17.1945 40.5351 15.6495C38.938 14.1045 36.1833 14.1016 32.7021 15.6271ZM23.2242 12.2519C24.5442 11.9239 26.4152 13.1858 28.3488 15.7219C28.7434 16.221 29.1204 16.7814 29.4994 17.383C28.2232 18.1839 26.9746 19.1291 25.7321 20.1976C24.031 19.8829 22.4183 19.6929 20.8919 19.5864C20.764 16.5659 21.152 14.0053 22.3452 12.7718C22.5996 12.5089 22.899 12.3289 23.2242 12.2519ZM33.8318 26.8978C34.1703 27.9299 34.4502 29.0227 34.7105 30.1357C34.0514 30.9465 33.3492 31.7156 32.6059 32.484C31.843 33.2726 31.0976 34 30.3286 34.6653C29.2076 34.4421 28.1257 34.1784 27.0829 33.8743C25.999 33.5695 24.9131 33.2236 23.8879 32.8582C23.4886 31.8456 23.1069 30.7717 22.7664 29.6985C22.4278 28.6664 22.148 27.5737 21.8877 26.4607C22.5468 25.6498 23.249 24.8808 23.9923 24.1123C24.7552 23.3237 25.5006 22.5964 26.2696 21.931C27.3906 22.1542 28.4725 22.4179 29.5153 22.7221C30.5992 23.0268 31.6851 23.3727 32.7103 23.7382C33.09 24.7709 33.4697 25.8037 33.8318 26.8978ZM34.7432 24.5304C35.792 24.9578 36.7606 25.425 37.7096 25.9125C37.2172 26.767 36.6424 27.6203 36.007 28.4931C35.8317 27.8537 35.6543 27.1733 35.4162 26.5124C35.1977 25.8313 34.9597 25.1704 34.7432 24.5304ZM35.5843 35.3653C34.5537 35.3077 33.4994 35.1882 32.4431 35.0276C32.9147 34.5834 33.3862 34.1392 33.8361 33.6741C34.286 33.209 34.7144 32.723 35.1427 32.237C35.3382 33.2874 35.4926 34.3371 35.5843 35.3653ZM28.7084 35.9947C27.8571 36.6587 27.0234 37.2614 26.1856 37.7819C25.6885 36.8705 25.1679 35.8971 24.7059 34.863C25.3528 35.0582 26.0212 35.2742 26.6876 35.4491C27.3971 35.6657 28.042 35.8198 28.7084 35.9947ZM21.8354 32.0862C20.7866 31.6587 19.818 31.1915 18.869 30.7041C19.3615 29.8495 19.9362 28.9963 20.5716 28.1234C20.747 28.7628 20.9243 29.4433 21.1624 30.1041C21.3809 30.7853 21.6189 31.4461 21.8354 32.0862ZM20.9943 21.2513C22.025 21.3088 23.0792 21.4283 24.1355 21.5889C23.664 22.0331 23.1925 22.4774 22.7425 22.9425C22.2926 23.4076 21.8643 23.8935 21.4359 24.3795C21.2404 23.3292 21.086 22.2795 20.9943 21.2513ZM29.8695 21.1466L27.8703 20.6219C28.7215 19.9578 29.5553 19.3551 30.393 18.8346C30.8901 19.746 31.4107 20.7195 31.8727 21.7535C31.2043 21.5375 30.5359 21.3215 29.8695 21.1466ZM15.7118 28.7851C13.1131 26.9366 11.7898 25.1085 12.0738 23.7783C12.14 23.4508 12.31 23.1455 12.5643 22.8826C13.738 21.6693 16.2627 21.1757 19.327 21.2041C19.4624 22.7053 19.7274 24.3317 20.0983 26.0214C19.0716 27.2987 18.1899 28.5988 17.4101 29.88C16.7964 29.5211 16.2433 29.1426 15.7118 28.7851ZM17.139 39.8346C16.1246 38.8533 16.1605 36.6568 17.3181 33.8621C17.5367 33.2906 17.816 32.6996 18.1169 32.1295C19.509 32.8498 21.0441 33.552 22.6575 34.1732C23.3319 35.7651 24.0434 37.2755 24.8291 38.6227C21.2662 40.5782 18.3476 41.0038 17.139 39.8346ZM33.3545 44.3646C32.0344 44.6926 30.1635 43.4307 28.2298 40.8947C27.8353 40.3956 27.4582 39.8351 27.0792 39.2336C28.3554 38.4326 29.604 37.4874 30.8465 36.419C32.5476 36.7336 34.1603 36.9236 35.6867 37.0301C35.8147 40.0507 35.4267 42.6112 34.2334 43.8448C33.9791 44.1076 33.6796 44.2877 33.3545 44.3646ZM40.8668 27.8315C43.4656 29.68 44.7888 31.5081 44.5048 32.8383C44.4387 33.1657 44.2687 33.471 44.0144 33.7339C42.8406 34.9472 40.3159 35.4408 37.2517 35.4124C37.1162 33.9113 36.8512 32.2848 36.4803 30.5951C37.507 29.3179 38.3887 28.0178 39.1685 26.7366C39.7823 27.0955 40.3353 27.4739 40.8668 27.8315ZM39.2605 22.7544C39.0419 23.3259 38.7626 23.9169 38.4618 24.4871C37.0696 23.7667 35.5345 23.0646 33.9211 22.4433C33.2467 20.8514 32.5352 19.3411 31.7495 17.9938C35.3124 16.0384 38.231 15.6127 39.4396 16.7819C40.454 17.7632 40.3986 19.98 39.2605 22.7544Z" fill="white"/>
</g>
<defs>
<filter id="filter0_d_681_2562" x="7.55493" y="7.71729" width="43.6588" height="43.373" filterUnits="userSpaceOnUse" color-interpolation-filters="sRGB">
<feFlood flood-opacity="0" result="BackgroundImageFix"/>
<feColorMatrix in="SourceAlpha" type="matrix" values="0 0 0 0 0 0 0 0 0 0 0 0 0 0 0 0 0 0 127 0" result="hardAlpha"/>
<feOffset dx="2.19083" dy="2.19083"/>
<feColorMatrix type="matrix" values="0 0 0 0 0 0 0 0 0 0 0 0 0 0 0 0 0 0 1 0"/>
<feBlend mode="normal" in2="BackgroundImageFix" result="effect1_dropShadow_681_2562"/>
<feBlend mode="normal" in="SourceGraphic" in2="effect1_dropShadow_681_2562" result="shape"/>
</filter>
</defs>
</svg>
