<svg width="64" height="89" viewBox="0 0 64 89" fill="none" xmlns="http://www.w3.org/2000/svg">
<path d="M21.129 0L21.22 0.039252C21.3266 0.364024 21.3613 1.24846 21.417 1.64968C21.8267 4.60156 22.1102 7.59499 22.5257 10.5427C23.1893 10.5276 23.9054 10.5076 24.5672 10.5463C28.5566 10.7797 32.2359 12.611 34.9049 15.5425C37.1774 18.0703 38.5462 21.2811 38.7966 24.6711C38.8741 25.699 38.8272 26.5839 38.7809 27.6084C39.9535 29.6002 41.2386 31.6315 42.4479 33.6029L46.8526 40.8822C47.7859 39.1495 48.3067 37.517 48.789 35.6256C49.7424 35.8669 50.9874 36.288 51.9514 36.579L58.5048 38.5673C57.5146 42.7457 55.2688 47.0472 52.82 50.5614C56.0856 56.1314 59.5993 61.6037 62.837 67.1502C62.3798 67.579 61.6494 68.1449 61.1454 68.5725C61.9666 69.8409 63.1325 71.1155 64 72.3627L61.8384 74.0159C60.9809 72.8539 59.9488 71.5214 59.0311 70.4113C57.4014 71.8437 55.8096 73.5236 54.186 74.9498C52.8696 73.3279 51.2773 70.9923 50.0161 69.2795C47.8177 66.2921 45.3829 63.1832 43.2625 60.1619C41.8519 61.0612 40.3661 61.7648 39.0001 62.7177C38.6521 62.9608 38.3031 63.2061 37.9468 63.4358C36.8028 64.1701 35.6029 64.8124 34.3579 65.3577C30.5637 67.0036 27.2638 67.3849 23.205 67.2495C22.6452 71.1255 22.0494 74.9955 21.4175 78.8598C21.1224 80.6875 20.8293 82.8748 20.4705 84.6617C19.805 84.6528 18.7222 84.6188 18.085 84.6745C18.0359 85.8766 17.8884 87.1155 17.8093 88.3254C17.0514 88.2222 15.8829 88.1324 15.1266 88.0845C15.1609 87.0168 15.2816 85.7149 15.3842 84.6567C13.4217 84.6087 11.3175 84.6416 9.34341 84.6366C9.48157 80.5994 9.65736 76.5627 9.87068 72.5289L10.1749 64.8604C8.23851 64.406 5.7558 63.4353 3.8588 62.7344C2.83497 62.3558 0.967905 61.626 0 61.1198C0.663929 59.5815 1.29195 57.9244 1.9144 56.3644C2.85906 54.0578 3.78275 51.7423 4.68542 49.4185C6.62826 50.4745 8.62584 51.4268 10.6698 52.2703C10.6999 50.5575 10.8282 48.7884 10.8827 47.0684C10.9661 44.4418 11.0382 41.8123 11.1872 39.1887C10.9946 39.0327 10.8037 38.8746 10.6147 38.7143C7.6547 36.1944 5.82176 32.3487 5.52548 28.4908C5.22451 24.9895 6.11191 21.4889 8.04454 18.5538C8.58102 17.7466 9.1176 17.1238 9.74206 16.3895C8.24164 14.7427 6.75114 13.0866 5.21464 11.4733C4.36996 10.5864 3.53547 9.69076 2.73127 8.7669C4.1601 8.02469 5.83971 7.28979 7.30958 6.58058L21.129 0Z" fill="black"/>
<path d="M22.9177 13.3496C29.8475 12.9766 35.7635 18.3015 36.1186 25.2322C36.4744 32.163 31.1345 38.0652 24.2029 38.4032C17.296 38.7399 11.4194 33.4234 11.0652 26.5173C10.7109 19.6114 16.0126 13.7214 22.9177 13.3496Z" fill="#FFDB33"/>
<path d="M22.8986 17.8659C27.3102 17.4725 31.2083 20.7231 31.6136 25.1337C32.0189 29.5442 28.7791 33.4512 24.3697 33.8686C19.9432 34.2877 16.0179 31.0324 15.6109 26.6048C15.2039 22.1772 18.4699 18.2608 22.8986 17.8659Z" fill="black"/>
<path d="M22.8174 20.6564C25.709 20.2206 28.4024 22.2227 28.8187 25.1172C29.2349 28.0117 27.2148 30.6916 24.3176 31.0883C21.4477 31.4814 18.7987 29.4845 18.3864 26.6174C17.9741 23.7503 19.9531 21.0879 22.8174 20.6564Z" fill="#FFFFFE"/>
<path d="M50.6634 39.0988C52.1309 39.5388 53.6157 39.9545 55.0731 40.423C52.0785 48.3445 46.4439 55.6946 38.772 59.5267C30.171 63.8226 20.6985 63.1457 11.784 60.2615C10.4046 59.8032 9.06906 59.2663 7.71271 58.7483C8.19722 57.4671 8.78114 56.0136 9.18888 54.7279C9.7762 54.976 10.3714 55.204 10.9738 55.4131C18.8116 58.1278 29.3394 58.5013 36.999 54.8672C43.2531 51.9005 48.4115 45.6214 50.6634 39.0988Z" fill="#FFDB33"/>
<path d="M16.786 39.5928C19.6785 40.8736 22.0212 41.3998 25.2032 41.0965C24.9097 42.3026 24.6331 44.1921 24.3994 45.4795L23.0202 53.0321C22.9319 53.5913 22.8062 54.1756 22.6955 54.7326C20.2138 54.6712 18.6583 54.4638 16.2073 53.986L16.786 39.5928Z" fill="#FFFFFE"/>
<path d="M37.8326 31.4259C38.7196 32.678 39.934 34.8364 40.7636 36.2071C42.2205 38.614 43.9611 41.2485 45.2948 43.6918C44.2683 45.2859 42.8221 47.118 41.4221 48.3853L40.9465 47.7859L33.0142 37.9318C35.4786 35.829 36.529 34.3849 37.8326 31.4259Z" fill="#FFFFFE"/>
<path d="M27.9726 40.9209C28.5529 41.5742 29.2386 42.4993 29.7937 43.208L32.47 46.5878L34.8669 49.6242C35.3481 50.232 35.9592 50.9601 36.3757 51.5924C34.9099 52.5681 34.4744 53.0593 32.7209 53.5516C30.4425 54.2368 27.9067 54.5658 25.5374 54.6851C26.3446 50.121 27.2138 45.4839 27.9726 40.9209Z" fill="#FFFFFE"/>
<path d="M15.7958 64.1744C17.1802 64.5642 19.374 64.9104 20.8127 65.0911C20.1784 69.5252 19.0995 74.2148 18.3758 78.6657C18.301 79.1396 18.1764 79.691 18.0812 80.1683C17.1037 80.2603 16.1252 80.3422 15.1459 80.4131C15.1475 78.0067 15.364 75.4537 15.4493 73.0378C15.5536 70.085 15.635 67.1244 15.7958 64.1744Z" fill="#FFFFFE"/>
<path d="M51.0136 53.0101C51.1575 53.1735 51.6782 54.0834 51.8277 54.3321L53.6893 57.4243C55.4935 60.4233 57.523 63.5668 59.2408 66.5736L57.2242 68.2229L56.7653 67.6609C53.8281 64.0139 50.6607 60.1546 47.8217 56.4519C49.0761 55.2314 49.9013 54.3427 51.0136 53.0101Z" fill="#FFFFFE"/>
<path d="M18.8977 4.13208L18.9343 4.15048C19.0474 4.4006 19.7141 10.3518 19.7883 11.0068C17.8412 11.5717 16.4836 12.1563 14.8346 13.3319C14.2538 12.694 13.6143 12.0492 13.0137 11.4254C12.0543 10.42 11.11 9.40042 10.181 8.367C11.2666 7.79261 12.4669 7.25458 13.5793 6.71811L18.8977 4.13208Z" fill="#FFFFFE"/>
</svg>
