<svg width="216" height="166" viewBox="0 0 216 166" fill="none" xmlns="http://www.w3.org/2000/svg">
<g filter="url(#filter0_d_1399_4780)">
<path d="M178.758 14.3883C165.042 7.9341 150.54 3.30526 135.621 0.620004C133.538 4.25453 131.648 7.99663 129.959 11.8306C114.065 9.26485 97.8758 9.09515 81.9311 11.3272C80.3225 7.45899 78.5115 3.67814 76.5056 0.000304821C61.524 2.39348 46.918 6.7278 33.056 12.8939C5.24305 53.1281 -2.59569 92.5652 0.708219 131.558C16.6232 143.577 34.4812 152.777 53.5059 158.76C57.8639 153.025 61.7309 146.933 65.0658 140.549C58.8838 138.166 52.9235 135.243 47.2541 131.815C48.7669 130.742 50.247 129.635 51.6774 128.561C68.195 136.542 86.2701 140.779 104.614 140.971C122.957 141.164 141.117 137.306 157.798 129.674C159.221 130.86 160.678 131.997 162.152 133.019C156.401 136.334 150.37 139.136 144.128 141.394C147.325 147.844 151.063 154.011 155.304 159.827C174.466 154.268 192.527 145.448 208.693 133.755C213.523 88.6264 202.136 49.3509 178.758 14.3883ZM70.1063 108.326C59.7615 108.218 51.3134 98.7405 51.4345 87.1913C51.5556 75.6421 59.9043 66.2582 70.5131 66.3694C81.1219 66.4806 89.5031 76.0399 89.2005 87.5872C88.898 99.1345 80.6491 108.437 70.1063 108.326ZM139.798 109.057C129.436 108.948 121.12 99.4723 121.241 87.9231C121.362 76.3739 129.711 66.99 140.32 67.1012C150.929 67.2124 159.128 76.7697 158.875 88.3176C158.622 99.8655 150.34 109.168 139.798 109.057Z" fill="#01ABFF"/>
<path d="M136.205 1.86838C150.649 4.53713 164.694 9.0404 177.997 15.2711C201.039 49.8392 212.278 88.6111 207.628 133.137C191.883 144.455 174.345 153.038 155.748 158.525C151.979 153.286 148.617 147.766 145.694 142.013C151.577 139.811 157.269 137.128 162.713 133.991L164.248 133.107L162.791 132.098C161.352 131.1 159.923 129.984 158.517 128.812L157.974 128.359L157.332 128.653C140.801 136.217 122.804 140.04 104.626 139.85C86.4474 139.659 68.534 135.46 52.165 127.551L51.5499 127.254L51.0035 127.664C49.5732 128.738 48.1042 129.837 46.6051 130.9L45.2099 131.889L46.6734 132.775C52.0387 136.019 57.6623 138.815 63.4861 141.134C60.44 146.829 56.9634 152.282 53.0879 157.448C34.627 151.55 17.2861 142.597 1.78561 130.962C-1.38158 92.4571 6.4098 53.5339 33.8007 13.7907C47.2447 7.83984 61.3896 3.62174 75.8956 1.23617C77.733 4.65947 79.403 8.17016 80.895 11.7579L81.2284 12.5583L82.0861 12.4384C97.9199 10.2219 113.997 10.3904 129.781 12.9384L130.637 13.0763L130.986 12.283C132.552 8.72703 134.295 5.25197 136.205 1.86838ZM70.5251 65.2478C59.1764 65.1289 50.4389 75.1386 50.3126 87.1798C50.1863 99.2402 59.0277 109.332 70.095 109.448C81.3826 109.566 90.007 99.6348 90.322 87.6167C90.6383 75.5428 81.8554 65.3667 70.5251 65.2478ZM140.332 65.9796C128.983 65.8606 120.246 75.8704 120.119 87.9115C119.993 99.9618 128.693 110.062 139.785 110.178C151.071 110.297 159.733 100.368 159.997 88.3422C160.261 76.2868 151.676 66.0986 140.332 65.9796Z" stroke="black" stroke-width="2.24362"/>
</g>
<defs>
<filter id="filter0_d_1399_4780" x="0" y="0" width="215.786" height="165.827" filterUnits="userSpaceOnUse" color-interpolation-filters="sRGB">
<feFlood flood-opacity="0" result="BackgroundImageFix"/>
<feColorMatrix in="SourceAlpha" type="matrix" values="0 0 0 0 0 0 0 0 0 0 0 0 0 0 0 0 0 0 127 0" result="hardAlpha"/>
<feOffset dx="6" dy="6"/>
<feColorMatrix type="matrix" values="0 0 0 0 0 0 0 0 0 0 0 0 0 0 0 0 0 0 1 0"/>
<feBlend mode="normal" in2="BackgroundImageFix" result="effect1_dropShadow_1399_4780"/>
<feBlend mode="normal" in="SourceGraphic" in2="effect1_dropShadow_1399_4780" result="shape"/>
</filter>
</defs>
</svg>
