<svg width="193" height="189" viewBox="0 0 193 189" fill="none" xmlns="http://www.w3.org/2000/svg">
<g filter="url(#filter0_d_1408_4750)">
<path fill-rule="evenodd" clip-rule="evenodd" d="M93.4567 0C41.8406 0 0 41.906 0 93.6156C0 134.97 26.7754 170.063 63.9151 182.437C68.5879 183.297 70.2888 180.409 70.2888 177.923C70.2888 175.708 70.2141 169.811 70.1673 162.007C44.1677 167.661 38.6817 149.456 38.6817 149.456C34.4388 138.634 28.308 135.755 28.308 135.755C19.8222 129.961 28.9529 130.073 28.9529 130.073C38.3266 130.727 43.2611 139.718 43.2611 139.718C51.5975 154.017 65.1393 149.886 70.457 147.493C71.3168 141.447 73.728 137.325 76.4009 134.989C55.6535 132.624 33.8313 124.587 33.8313 88.7185C33.8313 78.5037 37.4762 70.1393 43.448 63.5973C42.4854 61.2329 39.2799 51.7096 44.3639 38.8313C44.3639 38.8313 52.2143 36.3079 70.0645 48.4199C77.6884 46.3407 85.5544 45.2816 93.4567 45.2704C101.401 45.3078 109.391 46.3452 116.858 48.4199C134.699 36.3079 142.531 38.8219 142.531 38.8219C147.634 51.7096 144.419 61.2329 143.465 63.5973C149.447 70.1393 153.073 78.5037 153.073 88.7185C153.073 124.681 131.213 132.596 110.4 134.914C113.756 137.802 116.737 143.512 116.737 152.25C116.737 164.755 116.625 174.858 116.625 177.923C116.625 180.428 118.307 183.343 123.054 182.428C141.664 176.186 157.842 164.253 169.301 148.316C180.76 132.38 186.921 113.244 186.913 93.6156C186.913 41.906 145.064 0 93.4567 0Z" fill="#01C971"/>
<path d="M27.8809 136.659L27.8818 136.66V136.659L27.8105 136.626L27.7441 136.581C25.6143 135.127 24.3665 133.907 23.9062 132.81C23.6553 132.211 23.6142 131.588 23.8662 131.011C24.1046 130.465 24.5427 130.106 24.9531 129.872C25.7528 129.416 26.8041 129.235 27.5488 129.152C27.9411 129.109 28.2905 129.089 28.542 129.08C28.6681 129.076 28.7712 129.074 28.8437 129.073H28.9941L29.0225 129.075C34.0269 129.424 37.8136 131.998 40.3174 134.423C41.5727 135.639 42.5214 136.831 43.1572 137.722C43.4756 138.168 43.7174 138.54 43.8809 138.804C43.9624 138.935 44.0246 139.04 44.0674 139.113C44.0888 139.15 44.1055 139.18 44.1172 139.2C44.1201 139.205 44.1227 139.21 44.125 139.214C48.126 146.077 53.3028 148.442 58.0801 148.869C62.6304 149.276 66.9024 147.928 69.5508 146.798C70.3316 141.93 72.1105 138.25 74.2666 135.733C64.4637 134.436 54.4367 131.715 46.6914 125.183C38.3648 118.16 32.8311 106.871 32.8311 88.7188C32.8311 78.4834 36.408 70.036 42.2939 63.3867C41.1047 60.1592 38.5668 50.7919 43.4336 38.4639L43.6074 38.0244L44.0576 37.8789L44.3643 38.8311C44.0773 37.9383 44.0597 37.8827 44.0596 37.8789L44.0625 37.8779C44.0639 37.8775 44.0658 37.8765 44.0674 37.876C44.0708 37.8749 44.0748 37.8743 44.0791 37.873C44.0881 37.8703 44.0994 37.867 44.1123 37.8633C44.1381 37.8559 44.1715 37.8463 44.2129 37.8359C44.296 37.8151 44.411 37.7893 44.5576 37.7627C44.8509 37.7094 45.2717 37.6527 45.8232 37.627C46.9273 37.5755 48.5514 37.6474 50.7266 38.1055C55.0145 39.0085 61.4357 41.4134 70.2461 47.3369C77.8164 45.3136 85.6178 44.2816 93.4551 44.2705H93.4619C101.329 44.3076 109.247 45.3176 116.678 47.3359C125.482 41.4133 131.896 39.006 136.178 38.1006C138.35 37.6413 139.972 37.5686 141.074 37.6191C141.625 37.6444 142.045 37.7009 142.338 37.7539C142.484 37.7804 142.599 37.8054 142.682 37.8262C142.723 37.8365 142.756 37.8462 142.782 37.8535C142.795 37.8572 142.806 37.8605 142.815 37.8633C142.82 37.8646 142.824 37.8661 142.827 37.8672C142.829 37.8677 142.831 37.8677 142.832 37.8682L142.835 37.8691C142.835 37.8709 142.825 37.906 142.559 38.7373L142.837 37.8701L143.286 38.0146L143.461 38.4541C148.346 50.792 145.798 60.1592 144.617 63.3838C150.514 70.0347 154.073 78.4833 154.073 88.7188C154.073 106.918 148.53 118.201 140.184 125.199C132.425 131.705 122.38 134.387 112.554 135.661C115.483 139.044 117.736 144.563 117.736 152.25C117.736 158.505 117.709 164.16 117.681 168.633C117.653 173.11 117.625 176.394 117.625 177.923C117.625 178.975 117.98 180.03 118.734 180.72C119.45 181.374 120.692 181.85 122.807 181.455C141.188 175.273 157.167 163.479 168.489 147.732C179.826 131.966 185.921 113.035 185.913 93.6162V93.6152C185.913 42.4567 144.51 1.00016 93.457 1C42.3949 1 1.00021 42.4565 1 93.6152C1 134.5 27.4531 169.2 64.1572 181.463C66.2301 181.831 67.4625 181.354 68.1787 180.697C68.932 180.007 69.2891 178.96 69.2891 177.923C69.2891 175.826 69.2217 170.44 69.1748 163.231C56.6167 165.672 48.7711 162.561 44.0352 158.621C41.613 156.606 40.0425 154.406 39.0762 152.707C38.5927 151.857 38.2587 151.129 38.0439 150.608C37.9365 150.348 37.8586 150.139 37.8066 149.991C37.7808 149.918 37.7606 149.86 37.7471 149.818C37.7435 149.807 37.74 149.798 37.7373 149.789C35.6686 144.525 33.1583 141.225 31.1953 139.253C30.2106 138.264 29.3603 137.605 28.7676 137.199C28.4711 136.996 28.2385 136.856 28.0859 136.77C28.0098 136.726 27.9534 136.697 27.9189 136.679C27.9018 136.67 27.8899 136.664 27.8838 136.661C27.8825 136.66 27.8816 136.66 27.8809 136.659ZM27.8809 136.659C27.8799 136.659 27.879 136.658 27.8789 136.658L27.8799 136.659H27.8809Z" stroke="black" stroke-width="2"/>
</g>
<defs>
<filter id="filter0_d_1408_4750" x="0" y="0" width="192.913" height="188.6" filterUnits="userSpaceOnUse" color-interpolation-filters="sRGB">
<feFlood flood-opacity="0" result="BackgroundImageFix"/>
<feColorMatrix in="SourceAlpha" type="matrix" values="0 0 0 0 0 0 0 0 0 0 0 0 0 0 0 0 0 0 127 0" result="hardAlpha"/>
<feOffset dx="6" dy="6"/>
<feColorMatrix type="matrix" values="0 0 0 0 0 0 0 0 0 0 0 0 0 0 0 0 0 0 1 0"/>
<feBlend mode="normal" in2="BackgroundImageFix" result="effect1_dropShadow_1408_4750"/>
<feBlend mode="normal" in="SourceGraphic" in2="effect1_dropShadow_1408_4750" result="shape"/>
</filter>
</defs>
</svg>
