<svg width="63" height="59" viewBox="0 0 63 59" fill="none" xmlns="http://www.w3.org/2000/svg">
<path d="M46.9044 0.0214262C52.1129 -0.267987 56.3624 2.39851 59.2692 6.5665C63.1916 12.191 63.4387 19.521 62.1845 26.0574C60.295 35.9031 54.6321 45.0953 47.4926 52.0274C44.8028 54.622 42.1901 56.6103 39.1158 58.7023C32.1892 56.7749 25.5227 54.0115 19.2635 50.473C10.4116 45.2923 2.44288 37.7134 0.390049 27.2573C-1.25663 18.87 2.30432 9.56146 11.1915 7.28328C12.1612 7.03467 13.1317 6.6792 14.1302 6.51455C20.0851 5.38606 26.0248 7.91665 30.8282 11.255C31.4042 10.257 32.8396 8.35011 33.5854 7.45957C37.0991 3.2641 41.327 0.461814 46.9044 0.0214262Z" fill="black"/>
<path d="M46.8272 3.45385C47.536 3.35429 48.8704 3.45385 49.5912 3.59416C52.5878 4.17799 54.5821 5.97215 56.2871 8.35243C59.1234 12.3125 59.4983 17.6889 58.581 22.3887C56.5891 32.5921 49.4363 42.0163 41.7363 48.7466C40.6068 49.7334 38.6957 51.3506 37.4904 52.1708C31.1621 50.2093 25.109 47.4505 19.4768 43.9612C11.8813 38.965 5.48746 31.8639 5.26856 22.4265C5.20221 19.5656 5.41574 17.4025 7.03596 14.9144C8.74146 12.2953 11.2363 10.7517 14.2811 10.1466C19.557 9.11851 24.3944 11.4901 28.8401 14.0256C29.9334 14.6491 31.2259 15.3699 32.2481 16.0517C35.3773 11.0065 38.6179 5.40537 44.8076 3.79636C45.4664 3.6252 46.1528 3.5419 46.8272 3.45385Z" fill="#FF5C57"/>
</svg>
