<svg width="96" height="96" viewBox="0 0 96 96" fill="none" xmlns="http://www.w3.org/2000/svg">
<path d="M89.2024 40.2136C89.2563 40.3203 89.3298 41.0421 89.3532 41.2116C89.6433 43.3299 89.7339 45.2035 89.4906 47.3047C89.065 51.1024 87.4077 54.5954 84.7707 57.2524C83.8673 58.1629 82.7328 59.0571 81.7041 59.826C81.2717 59.6976 80.0656 59.1363 79.5902 58.9275L75.9291 57.3387C72.1681 55.7281 68.4149 54.0977 64.6692 52.4473C63.6548 53.3712 62.523 53.9259 61.1013 53.9643C59.6288 54.0184 58.1676 53.4694 57.0514 52.4428C55.8209 51.306 55.2108 49.9378 55.0999 48.3138C53.9768 47.7783 52.6378 47.2323 51.4832 46.7373L46.4626 44.5681L31.7896 38.1927C31.7355 37.3579 31.5489 36.325 31.4788 35.4412C31.2244 32.2348 31.6285 29.9387 32.6336 27.008C31.5493 26.5171 30.3025 25.9248 29.213 25.4843C28.9638 26.1087 28.7247 26.93 28.5061 27.5887L27.2341 31.4048C26.3006 34.2294 25.281 37.1183 24.3869 39.9476C26.6637 41.1961 28.9469 42.4319 31.2367 43.6546L46.1446 51.7206L52.3022 55.0481C53.4129 55.6501 54.5345 56.2327 55.6306 56.8619L52.1944 65.3918C54.0045 66.1863 55.8092 66.9936 57.6092 67.8132C57.2086 68.8951 56.7288 70.0228 56.296 71.0964L54.3477 75.9646L49.8783 87.1069C49.0921 88.9361 47.5998 90.3419 45.7286 91.0165C43.8709 91.6792 41.79 91.5546 39.9482 90.6709C38.0827 89.7658 36.6181 88.1667 35.8805 86.2287C35.3921 84.9455 35.2609 83.33 35.5326 82.0226C35.6943 81.2436 36.125 80.2325 36.4211 79.4952L37.8296 75.993L41.5206 66.7773C42.1886 65.1187 42.8945 63.197 43.6213 61.5932C44.4045 61.9033 45.2578 62.3077 46.0356 62.6533L50.1198 64.4742C50.3878 63.7107 50.8048 62.7578 51.1118 61.999L52.795 57.8065C51.9428 57.2959 50.6633 56.66 49.7525 56.1684L43.2512 52.6595L21.6398 40.9728L25.151 30.4623L26.6393 25.9893C27.0278 24.8129 27.4087 23.6101 27.8316 22.4486C28.4317 22.68 29.0672 22.9911 29.6627 23.254C30.9646 23.8284 32.2637 24.4098 33.56 24.9981C34.3508 23.3355 36.0797 21.2455 37.4275 20.0424C38.0602 19.4776 39.0425 18.7326 39.7235 18.1912C40.414 18.4509 41.2856 18.8848 41.9765 19.194L46.0047 20.9845L57.8201 26.2428L89.2024 40.2136Z" fill="black"/>
<path d="M86.9915 41.9575C87.2919 42.9369 87.2623 45.1785 87.1467 46.1875C86.7871 49.261 85.4102 52.0754 83.234 54.1863C82.6711 54.733 82.188 55.0998 81.5625 55.5673C81.0299 55.3831 80.0653 54.9189 79.5147 54.6718L75.9895 53.1034C72.8404 51.6972 69.5733 50.3063 66.4597 48.8432L66.5614 48.5674L71.3204 34.98C76.4886 37.3491 81.8473 39.5553 86.9915 41.9575Z" fill="white"/>
<path d="M69.2077 34.0332C69.2241 34.1349 68.9122 34.9718 68.8536 35.1386L67.944 37.7185L65.0382 46.0266C64.7676 46.7888 64.5015 47.5526 64.2398 48.3182C64.0666 48.8227 63.908 49.3669 63.6807 49.8584C62.1566 53.1587 57.262 51.7669 57.3416 48.0812C57.3579 47.3195 57.8517 46.1925 58.1156 45.4428L59.8276 40.5103C60.089 39.7576 60.3693 38.9828 60.6157 38.2523C61.3098 36.1947 60.5456 33.8306 58.7433 32.4818C57.8783 31.8345 57.2029 31.625 56.183 31.444C54.306 31.2538 52.5289 32.1166 51.5639 33.6866C50.9902 34.622 51.0073 35.4445 49.7344 36.0382C49.0525 36.3546 48.26 36.38 47.5307 36.1089C46.7971 35.8308 46.1384 35.2188 45.7926 34.5129C45.5614 34.0379 45.4665 33.5132 45.5192 33.0001C45.5798 32.3813 46.2355 30.4203 46.4488 29.7471C46.9759 28.0339 47.5156 26.3252 48.068 24.6212L61.7683 30.7258C64.2219 31.8164 66.7741 32.9072 69.2077 34.0332Z" fill="#01C971"/>
<path d="M57.6903 34.4801C58.1493 34.8755 58.4595 35.505 58.579 36.081C58.6954 36.6418 58.6037 37.0883 58.4265 37.6091C58.2005 38.274 57.9674 38.9318 57.7363 39.5931L56.116 44.2468C54.3351 43.5165 52.5297 42.6446 50.7587 41.8687L36.3603 35.4785C35.9269 32.6902 36.0802 30.2919 37.1177 27.7067C38.1684 25.2488 39.6409 23.3799 41.8212 21.8508C42.2537 22.0052 42.9334 22.3359 43.3688 22.5317L45.959 23.6829C45.3955 25.55 44.8176 27.4122 44.2252 29.269C43.9841 30.032 43.5001 31.4019 43.3566 32.1489C43.2669 32.6152 43.2446 33.0953 43.2903 33.5746C43.564 36.4695 46.1007 38.69 48.973 38.5266C50.6133 38.4333 52.1038 37.5151 52.9194 36.119C53.2103 35.6212 53.3494 35.0346 53.7376 34.5984C54.4345 33.7734 55.5472 33.4556 56.6142 33.8154C57.0586 33.9653 57.3382 34.1717 57.6903 34.4801Z" fill="white"/>
<path d="M52.0709 74.3573C52.0698 74.5213 47.993 84.6649 47.6269 85.5031C47.5288 85.7267 47.4107 85.9404 47.274 86.1416C46.6257 87.077 45.6206 87.6973 44.4802 87.8661C43.3592 88.0287 42.1976 87.7289 41.2562 87.034C40.1896 86.2516 39.6474 85.2418 39.4159 83.9788C39.2408 82.5903 39.6701 81.8291 40.1577 80.6085L41.3315 77.6946C42.2449 75.4577 43.1131 73.1289 44.0626 70.9199C44.7665 71.2554 45.6511 71.6007 46.3867 71.9172L52.0709 74.3573Z" fill="#01C971"/>
<path d="M54.1675 69.1164C54.1677 69.2845 53.0493 72.0009 52.9216 72.3253C50.9775 71.5134 49.0376 70.6161 47.0859 69.8144C46.3543 69.5137 45.6347 69.1726 44.8949 68.8853C44.8959 68.6972 46.0551 65.9265 46.2081 65.5768C47.3749 66.0622 48.6365 66.6535 49.8013 67.1753L54.1675 69.1164Z" fill="#01C971"/>
</svg>
