<svg width="98" height="98" viewBox="0 0 98 98" fill="none" xmlns="http://www.w3.org/2000/svg">
<path d="M26.8501 16.5609C27.1591 16.4519 28.1693 16.3391 28.5254 16.3107C32.5325 15.9908 37.4112 16.4067 41.3108 17.3915C41.6611 16.9479 42.8671 15.7688 43.3325 15.3213C44.2414 14.447 45.2315 13.3149 46.126 12.4818C47.157 13.1627 48.2499 13.9511 49.2693 14.6601L54.9127 18.5813L69.7799 28.8821L80.9236 36.5691L84.1126 38.7532C84.7208 39.1691 85.3982 39.6123 85.9788 40.0571C80.8636 46.3405 75.8448 52.7022 70.9236 59.1398C69.0642 61.5829 67.0548 64.0951 65.3063 66.6114C64.7012 66.226 63.914 65.8078 63.2795 65.4395L59.244 63.0758C58.9896 63.3746 58.7649 63.6778 58.4979 63.973C56.5046 66.1786 53.9871 67.7538 51.342 69.0554C50.8357 69.3042 50.3361 69.5687 49.8135 69.7846C49.563 70.1914 49.05 71.5279 48.8407 72.0384C48.2994 73.378 47.7336 74.7074 47.1434 76.026C48.3136 76.875 49.8698 77.6709 50.9732 78.538C50.849 78.7629 50.6713 79.0212 50.5282 79.2397C49.6418 80.4959 48.6717 82.0446 47.8336 83.3459L44.8115 87.9964C44.1274 89.0561 43.1694 90.6427 42.4203 91.6236C40.8798 90.63 39.2752 89.4503 37.768 88.3862L30.7872 83.4623L26.0412 80.0837C24.612 79.0727 22.4845 77.5613 21.1625 76.4136C24.1249 73.1247 27.0432 69.7961 29.9169 66.4291C31.0769 65.0584 32.1997 63.5847 33.3605 62.2249C33.008 61.2172 32.7196 59.6424 32.5396 58.5861C31.9133 54.912 31.4691 51.5383 32.5464 47.9108C31.9163 47.8176 30.7008 47.8237 30.0381 47.8305C24.7205 47.8851 19.1437 48.3348 13.9081 49.2171C12.8089 49.4064 11.7133 49.6158 10.6217 49.8453C10.0943 49.9564 9.47973 50.1279 8.96509 50.2026L8.90538 50.211C9.16998 49.1922 10.3657 46.9729 10.8821 46.0011C12.1678 43.5814 13.5736 41.1759 14.9239 38.7888C17.293 34.6295 19.6174 30.4446 21.8964 26.2348C23.6137 23.0729 25.3773 19.8418 26.8501 16.5609Z" fill="black"/>
<path d="M40.1928 21.8465C40.283 21.8269 40.6073 22.0637 40.7113 22.1254C41.1085 22.3622 41.4993 22.569 41.9273 22.7494C43.0161 23.205 44.1934 23.4064 45.371 23.3382C47.9706 23.1951 50.7373 21.6771 52.4606 19.7468C53.5359 20.4099 54.9679 21.4797 56.0422 22.2239L63.6206 27.4727L71.188 32.7038C72.4245 33.556 73.9901 34.5475 75.162 35.4535C74.0047 37.1077 73.3144 39.6048 73.4026 41.6022C73.5244 44.3626 74.4654 46.4193 76.4224 48.2989C76.0599 48.891 75.3898 49.6895 74.9455 50.2633C74.0532 51.4368 73.1493 52.6013 72.2334 53.7568C71.6601 54.4953 71.0911 55.2374 70.5263 55.9827C70.1114 56.5289 69.661 57.1443 69.195 57.6409C67.6688 57.126 66.9114 56.9531 65.3272 56.8197C62.529 56.6787 60.0227 57.5101 57.9179 59.3608C57.5775 59.1781 57.1637 58.8827 56.8278 58.6693C55.9303 58.1015 55.0392 57.5243 54.154 56.9375L47.7283 52.7737C46.3995 51.9013 44.6888 50.7137 43.3389 49.9224C43.9758 48.6581 44.7409 47.1795 45.2056 45.8576C44.1348 44.1792 42.6443 41.1707 40.9527 40.1152C38.4531 41.0404 37.0465 42.4821 35.1057 44.2354C34.9401 44.1103 34.7659 43.9977 34.5931 43.883C33.883 43.4119 33.2105 42.8862 32.4975 42.4196C33.1939 41.2852 33.5452 40.4315 33.5974 39.0923C33.7065 36.2901 32.3817 33.9585 30.5721 31.958C31.3153 31.1116 32.1311 30.2704 32.9038 29.4508L35.5976 26.5878C37.0866 25.0295 38.6577 23.3393 40.1928 21.8465Z" fill="#01ABFF"/>
<path d="M49.1166 31.8609C51.4629 30.7172 54.245 30.8696 56.6524 31.7456C60.4436 33.1249 63.738 36.1123 65.2258 39.9064C65.8812 41.5785 66.0829 43.6249 65.4785 45.3416C64.9056 47.0118 63.6838 48.3783 62.0913 49.1298C59.8928 50.2162 57.6253 50.2242 55.3086 49.5332C51.5921 48.4025 48.4632 45.8575 46.5903 42.4421C44.5376 38.6207 45.016 34.0184 49.1166 31.8609Z" fill="black"/>
<path d="M50.2539 33.7744C50.2614 33.7701 50.2692 33.7657 50.2767 33.7614C54.8228 31.7988 60.5805 35.5318 62.688 39.465C64.2846 42.4452 64.2372 45.5621 61.1772 47.1926C56.7881 49.3132 50.5367 45.2229 48.5822 41.2616C47.1777 38.4154 47.1365 35.3375 50.2539 33.7744Z" fill="white"/>
<path d="M40.5906 43.0172L40.6245 43.0114C40.9015 43.1518 41.831 44.7247 42.0071 45.0879C42.1389 45.3598 42.3249 45.8191 42.4403 46.1208C41.7476 47.992 41.4028 48.5881 40.2319 50.2018C41.5824 51.4917 42.4883 52.0959 44.0328 53.1551C45.0983 53.8996 46.1787 54.6219 47.2737 55.3225L51.0489 57.8021C52.6571 58.841 54.3401 59.8943 55.9282 60.9524C54.1461 63.3401 51.5799 65.1608 49.017 66.6183C48.6448 66.8304 48.2118 67.0669 47.8639 67.3092L47.8228 67.3385C47.1468 68.9806 46.1005 70.9899 45.2764 72.5718C44.9333 73.2185 44.5673 73.8617 44.2187 74.5079C40.2984 72.2107 36.2368 69.8486 32.5032 67.259C32.691 66.9934 32.8997 66.7382 33.1112 66.4915C34.2154 65.2049 35.2489 63.8573 36.3447 62.5651C34.8601 59.7899 33.722 52.5036 34.4934 49.2649C34.5654 49.0145 34.6888 48.4991 34.8522 48.294C36.3479 46.4167 38.5752 44.2443 40.5906 43.0172Z" fill="white"/>
<path d="M28.5066 18.7965C31.0945 18.419 34.7175 18.6902 37.3008 19.0937C37.8228 19.1752 38.6168 19.2947 39.1034 19.4459C38.6642 20.0009 37.9042 20.7024 37.3993 21.2372L33.5306 25.3151L21.8075 37.8845C22.4787 38.301 23.2826 38.9215 23.9598 39.3816C25.915 40.7102 27.8217 42.0835 29.7877 43.3992C30.0193 43.5445 30.305 43.7842 30.5628 43.9562C27.7242 43.7066 25.0343 43.496 22.1719 43.4528C19.7317 43.4367 17.2915 43.499 14.8553 43.6398C16.4792 40.9922 18.108 37.9807 19.6203 35.2623C22.6635 29.8182 25.626 24.329 28.5066 18.7965Z" fill="#01ABFF"/>
<path d="M30.8329 69.2624C31.1654 69.4091 32.1815 70.0642 32.5533 70.2914L36.0001 72.379L42.7569 76.4181C44.1973 77.2725 45.7339 78.1447 47.1425 79.0339C46.4535 80.1128 45.6338 81.1483 44.9218 82.218C43.9574 83.6666 42.903 85.0606 41.9327 86.5058C41.9189 86.5041 26.3704 76.511 25.2026 75.6351C25.7203 75.1209 26.2195 74.4872 26.717 73.9477C28.102 72.4456 29.4396 70.7347 30.8329 69.2624Z" fill="#01ABFF"/>
<path d="M30.8776 72.7952C31.6627 72.3645 32.6468 72.6501 33.0822 73.4346C33.5176 74.2191 33.2417 75.2096 32.4639 75.6532C31.6767 76.1023 30.6757 75.8213 30.2351 75.0275C29.7944 74.2333 30.0829 73.2307 30.8776 72.7952Z" fill="black"/>
<path d="M77.1855 36.8394L82.4855 40.4689C81.4451 41.9395 80.2703 43.2989 79.2337 44.7438C78.8182 45.3137 78.3266 45.8636 77.9239 46.4473C76.1656 44.8112 75.3538 42.2194 75.8259 39.8711C76.0314 38.8506 76.4915 37.6295 77.1855 36.8394Z" fill="#01ABFF"/>
<path d="M46.4867 15.6803C46.632 15.6815 50.3235 18.286 50.6812 18.5409C49.1363 19.9584 47.8038 20.849 45.6838 21.1174C44.2543 21.2557 43.0778 20.9169 41.8658 20.1679C42.2851 19.8288 42.954 19.135 43.3711 18.7341C44.4193 17.7261 45.4579 16.7082 46.4867 15.6803Z" fill="#01ABFF"/>
<path d="M28.9857 33.7487C29.0085 33.7455 29.0598 33.754 29.0856 33.7569C29.9567 34.4637 31.0577 36.5548 31.2205 37.6825C31.4099 38.9945 31.3341 39.9561 30.6 41.053C30.0928 40.7289 29.5466 40.2977 29.0302 39.946C27.8467 39.1336 26.6607 38.2737 25.4633 37.4855C25.9872 36.8943 26.5775 36.2889 27.1222 35.7092C27.7105 35.083 28.3706 34.3392 28.9857 33.7487Z" fill="#01ABFF"/>
<path d="M61.6806 59.4657C63.5771 58.6546 65.8237 58.8584 67.7284 59.533C67.0464 60.5074 66.3062 61.4729 65.5924 62.4277C65.2855 62.8409 64.9623 63.2515 64.6518 63.6652C63.0464 62.6967 61.3841 61.5491 59.802 60.6268C60.6627 60.0709 60.6209 59.9493 61.6806 59.4657Z" fill="#01ABFF"/>
</svg>
