<svg width="60" height="82" viewBox="0 0 60 82" fill="none" xmlns="http://www.w3.org/2000/svg">
<path d="M0.797533 21.5449C1.17353 20.1299 1.86525 19.0468 2.49785 17.8037C5.91894 11.0809 11.2036 5.64439 18.5768 3.42226C20.0223 2.88972 21.4893 2.24339 22.9836 1.85554C38.4538 -2.16063 59.4384 11.6066 56.7752 28.7658C55.5582 36.6054 49.9241 41.7455 43.7705 46.1556C42.858 46.8259 41.8286 47.5508 40.965 48.2645C40.2688 49.0956 39.3281 49.6759 38.6929 50.5999C37.3958 52.4857 37.0497 54.9775 36.9306 57.2105C36.8963 57.8472 36.9494 58.744 36.6748 59.3213C36.5352 59.6133 36.1704 59.7556 35.8851 59.8643C35.1728 60.1345 32.6129 60.9323 31.9532 60.9171C30.8471 60.8914 16.434 57.9207 15.7105 57.5937C14.9684 56.6315 15.2608 55.2867 15.3287 54.0545C15.689 47.5122 17.2962 40.3782 23.2627 36.669C25.4743 35.1708 28.128 34.114 30.1022 32.292C35.3622 27.4366 32.9198 20.1636 25.636 19.8371C22.4994 21.3936 20.4962 24.4893 19.0517 27.5648C18.83 28.0369 18.6127 28.5058 18.3556 28.9601L18.3072 29.0441C17.6795 29.4208 14.2414 30.5986 13.5254 30.6608C13.002 30.3957 11.752 29.4658 11.1904 29.0681C9.60973 27.9526 8.03515 26.8284 6.4668 25.6956L2.88704 23.1345C2.25811 22.6824 1.33602 22.0571 0.797533 21.5449Z" fill="black"/>
<path d="M25.802 3.93184C29.1971 3.56073 31.7065 3.66867 35.051 4.62408C36.6695 4.99785 40.9434 6.70245 42.2915 7.71756C43.2905 8.21279 45.5792 9.75967 46.3879 10.5431C46.8437 10.8687 47.4515 11.4092 47.8406 11.817C50.1515 13.9699 51.4977 15.934 52.8711 18.762C53.1829 19.3117 53.5731 20.5296 53.7435 21.1346C54.6821 24.23 54.586 27.0696 53.7706 30.1666C52.0957 36.5326 46.8202 40.8398 41.6494 44.4661C36.8901 47.8037 34.5266 50.6892 34.3557 56.8472C33.6558 56.7332 32.2986 56.525 31.6488 56.3329C29.3747 55.8498 27.0725 55.446 24.8091 54.948C23.9402 54.8099 23.0767 54.6397 22.2204 54.4382C22.4317 49.2029 23.2298 43.1533 27.6781 39.7585C28.9214 38.8101 30.1308 38.2778 31.5239 37.6094C33.8462 36.5186 35.9474 35.4449 37.8027 33.6197C41.5932 29.8903 42.1144 23.6226 38.1651 19.7782C33.91 15.6356 26.6175 15.0994 22.0464 19.0762C21.3939 19.6439 20.7771 20.2983 20.1686 20.919C18.8134 22.5512 18.067 23.8131 17.0625 25.6793C16.7228 25.4496 15.8794 24.9078 15.6115 24.6599C15.3405 24.5772 8.45366 19.8194 7.84493 19.3283C11.5133 11.6857 17.0718 5.42694 25.802 3.93184Z" fill="#FFDB33"/>
<path d="M47.8406 11.8169C50.1515 13.9698 51.4977 15.9339 52.871 18.7618C52.7872 18.8129 52.8432 18.7866 52.6932 18.8116C52.569 18.7102 51.5517 16.6448 51.2596 16.2403C51.0901 16.2837 51.0949 16.2936 50.9252 16.2632C50.8959 16.113 50.8735 16.0273 50.8291 15.8806C50.6877 15.8507 50.6738 15.8463 50.5287 15.7987L50.4905 15.6801C50.6998 15.6558 50.6231 15.7048 50.7523 15.5781C50.716 15.3845 50.7351 15.3725 50.6022 15.2354C50.6248 15.3974 50.6377 15.3256 50.5845 15.4531C49.3904 14.6488 50.3509 14.7711 49.6518 14.0669C49.3802 14.0012 48.9129 13.9389 48.8894 13.5993L49.099 13.4762L49.0814 13.3837L48.8726 13.3846C48.6679 13.2775 48.6361 13.1371 48.5303 12.9206L48.486 12.8278C48.0932 12.5931 48.2984 12.766 47.8392 12.6904C48.296 12.0638 47.799 12.4002 47.8406 11.8169Z" fill="#FFDB33"/>
<path d="M25.8019 3.93186C29.1971 3.56075 31.7064 3.66869 35.051 4.6241C34.3879 4.89393 33.0122 4.51904 32.2756 4.51362C31.7854 4.51003 31.307 4.71814 30.8327 4.62652L30.8039 4.54222C31.1435 4.33149 31.5756 4.34673 31.9622 4.34702L32.0136 4.29524C31.6108 4.13258 31.2143 4.1749 30.8065 4.09982C29.1497 3.79514 27.4391 4.05618 25.8019 3.93186Z" fill="#FFDB33"/>
<path d="M15.6115 24.6591C16.2331 24.7128 16.3153 24.8712 16.8207 25.2144L16.9318 25.185L16.8922 24.8858C17.9466 23.8548 17.3846 24.169 17.857 22.9995C18.2731 22.8187 18.2201 22.8969 18.3382 22.5085L18.4612 22.6105C18.6638 22.4783 18.7461 22.2757 18.8785 22.0552L18.6776 22.0582L18.6846 21.982C18.8828 21.8393 19.0773 21.6916 19.2682 21.5393C19.2947 20.9393 19.5891 21.0657 20.1685 20.9182C18.8133 22.5504 18.067 23.8123 17.0625 25.6785C16.7228 25.4488 15.8794 24.907 15.6115 24.6591Z" fill="#FFDB33"/>
<path d="M24.8091 54.9474C25.469 54.8189 26.0628 55.1686 26.4995 54.9814C27.3033 54.6372 27.1367 55.0857 27.8732 55.1058L27.913 55.1937C27.5007 55.3207 27.6258 55.0532 27.4206 55.2893C27.7018 55.4374 27.8284 55.3042 28.1746 55.4488C28.4814 55.1037 28.9096 55.1979 29.3721 55.1773C29.5766 55.2823 29.7633 55.3396 29.8844 55.508C29.5525 55.6779 29.4776 55.3514 29.3867 55.6009C30.0756 55.865 31.4095 55.8429 31.6488 56.3324C29.3746 55.8493 27.0724 55.4454 24.8091 54.9474Z" fill="#FFDB33"/>
<path d="M42.2914 7.71694C43.2905 8.21217 45.5792 9.75905 46.3878 10.5425C46.0678 10.527 43.4896 9.17789 43.1252 8.89612L43.4212 8.92265L43.4483 8.8098C43.1615 8.46461 42.5466 8.27519 42.2914 7.71694Z" fill="#FFDB33"/>
<path d="M16.5913 77.7173C16.3761 77.5874 15.9178 76.9914 15.7553 76.7756C13.7632 74.1279 13.4896 70.2988 15.0665 67.3852C16.1806 65.3053 18.1159 63.7876 20.4016 63.2013C21.7573 62.848 22.7291 62.8916 24.1782 62.3711C26.3108 61.6054 28.8722 62.1149 30.8526 63.2021C32.2118 64.0498 32.7768 64.5857 33.736 65.8612C35.637 68.9528 35.9114 72.4321 33.9469 75.5974C33.7674 75.8867 33.3852 76.4821 33.1103 76.6655C32.5564 77.4257 31.8539 77.9462 31.0622 78.4431C30.0099 79.0909 28.8247 79.4927 27.5953 79.6167C27.2298 79.655 26.4206 79.6785 26.1098 79.768C23.7747 80.4372 21.6571 80.7621 19.3189 79.6645C18.4342 79.264 17.1941 78.4814 16.5913 77.7173Z" fill="black"/>
<path d="M30.8527 63.2023C32.2118 64.0501 32.7768 64.586 33.736 65.8615C33.5314 65.93 33.5207 65.9514 33.3106 65.9377C33.0057 65.7487 32.6312 64.7532 32.3359 64.4626C32.0436 64.1756 31.0032 63.7295 30.798 63.4532L30.8527 63.2023Z" fill="#050A06"/>
<path d="M31.0622 78.4434C31.5039 77.5058 32.1572 77.1578 33.1103 76.6659C32.5564 77.426 31.8539 77.9466 31.0622 78.4434Z" fill="#050A06"/>
<path d="M21.213 67.7311C22.4224 65.6848 24.7008 64.5163 27.0686 64.7274C29.4364 64.9392 31.4712 66.4939 32.2987 68.7223C33.271 71.3415 32.3597 74.2875 30.0787 75.9005C27.7974 77.5135 24.7164 77.3906 22.571 75.6006C22.0902 75.1999 21.6734 74.7279 21.3348 74.2014C20.0745 72.241 20.0274 69.7373 21.213 67.7311Z" fill="#FFDB33"/>
<path d="M22.5709 75.6004C23.1247 75.5991 23.2837 76.0522 23.5625 76.0666C24.1866 76.0992 24.967 76.0213 25.5956 76.1225L25.696 76.2903L25.6614 76.4103C25.3648 76.6285 25.1841 76.5515 24.9451 76.7131C25.4261 76.9201 25.4927 76.7302 25.923 76.6567L25.9056 76.8316C26.0592 76.9574 26.1324 76.9197 26.3367 76.9214C28.3951 76.9408 30.3221 76.0398 31.4415 74.2791C31.6668 73.9251 31.9048 73.7042 31.8558 73.2372C31.8378 73.0652 31.8739 72.6286 31.9769 72.4993C32.0522 72.6581 32.0523 72.661 32.1648 72.7943C32.2746 72.7399 32.3211 72.5544 32.3873 72.4086C32.2908 72.2774 32.2872 72.279 32.2304 72.1282C33.0812 70.5824 31.9811 69.7254 32.2987 68.7222C33.271 71.3414 32.3597 74.2873 30.0787 75.9003C27.7974 77.5134 24.7164 77.3904 22.5709 75.6004Z" fill="#FFDB33"/>
<path d="M21.3348 74.201C20.0745 72.2405 20.0274 69.7369 21.213 67.7306C21.3063 68.1828 21.3425 68.018 21.2426 68.3379C20.8546 69.5819 21.1891 72.9004 21.3348 74.201Z" fill="#FFDB33"/>
<path d="M31.4666 68.7341C31.6381 68.7039 31.6259 68.7073 31.7923 68.7632L31.8692 68.9263C31.8231 69.2433 31.8218 69.299 31.8704 69.6178L31.8822 69.6925L31.793 69.8422L31.681 69.8266C31.5547 69.5854 31.507 69.0287 31.4666 68.7341Z" fill="#FFDB33"/>
</svg>
